<?xml version="1.0" standalone="no"?>
<!DOCTYPE svg PUBLIC "-//W3C//DTD SVG 20010904//EN"
 "http://www.w3.org/TR/2001/REC-SVG-20010904/DTD/svg10.dtd">
<svg version="1.0" xmlns="http://www.w3.org/2000/svg"
 width="640.000000pt" height="640.000000pt" viewBox="0 0 640.000000 640.000000"
 preserveAspectRatio="xMidYMid meet">

<g transform="translate(0.000000,640.000000) scale(0.100000,-0.100000)"
fill="#000000" stroke="none">
<path d="M2540 6193 c-49 -8 -88 -24 -105 -43 -16 -18 -15 -19 13 -34 60 -31
96 -155 90 -311 l-3 -91 -52 -69 c-147 -199 -233 -406 -233 -561 0 -77 30
-177 69 -229 l29 -39 -97 -32 c-53 -18 -144 -55 -201 -84 -98 -49 -113 -61
-245 -194 -191 -192 -279 -330 -325 -510 -47 -185 -7 -404 102 -559 l20 -28
31 48 c46 70 154 173 228 216 183 108 406 109 581 4 177 -107 301 -280 375
-522 26 -85 27 -102 28 -285 0 -183 -2 -201 -28 -295 -89 -318 -299 -547 -552
-600 -88 -18 -132 -18 -220 0 -142 30 -288 126 -384 252 -224 294 -271 734
-116 1069 19 42 33 80 29 83 -8 8 -160 -33 -241 -65 -121 -48 -203 -102 -298
-198 -122 -123 -184 -234 -230 -411 -26 -96 -27 -304 -3 -395 25 -93 91 -218
148 -282 l49 -56 -31 -6 c-17 -3 -53 -6 -80 -6 -115 0 -293 -55 -412 -127
-122 -74 -256 -223 -324 -358 -73 -147 -123 -346 -123 -485 1 -255 165 -497
426 -628 168 -84 359 -128 630 -144 163 -10 200 -9 396 11 119 12 294 33 390
48 203 30 188 29 439 15 107 -7 332 -16 500 -22 168 -5 415 -16 550 -25 617
-36 1612 -50 1925 -26 534 41 763 129 910 351 66 99 131 243 155 340 27 115
27 288 0 394 -68 266 -306 514 -672 702 -59 30 -108 57 -108 60 0 2 7 15 16
29 48 73 68 351 39 532 -68 418 -294 654 -659 688 -42 4 -76 9 -76 11 0 2 11
42 25 88 37 130 51 275 36 382 -10 70 -20 101 -51 153 -172 296 -401 451 -665
451 l-82 0 20 68 c29 98 28 298 -1 406 -92 335 -399 687 -888 1014 -111 74
-339 206 -412 238 -96 43 -268 78 -332 67z m1903 -2468 c255 -88 459 -371 508
-705 17 -122 7 -310 -25 -435 -77 -301 -275 -529 -519 -600 -75 -22 -219 -22
-294 0 -107 31 -192 83 -283 175 -123 124 -199 265 -239 447 -120 539 160
1080 594 1147 61 9 190 -5 258 -29z m-159 -2054 c56 -19 88 -54 80 -88 -20
-86 -154 -225 -330 -343 -184 -123 -367 -198 -586 -241 -146 -29 -366 -31
-513 -5 -294 53 -609 212 -819 414 -84 82 -116 135 -116 194 0 26 3 47 8 46 4
-1 21 4 37 11 17 7 48 16 70 21 22 4 510 7 1085 6 830 -1 1053 -4 1084 -15z"/>
<path d="M4160 3363 c-101 -36 -209 -184 -245 -334 -19 -83 -19 -255 0 -338
33 -140 116 -261 217 -316 46 -26 63 -30 128 -30 61 0 84 5 125 27 148 78 238
264 237 493 -1 187 -55 329 -161 428 -91 84 -193 108 -301 70z"/>
<path d="M2032 3349 c-276 -138 -327 -673 -87 -913 147 -147 345 -121 470 63
24 36 56 102 72 146 24 72 27 94 27 215 -1 119 -4 145 -27 217 -82 248 -274
363 -455 272z"/>
</g>
</svg>
